PathFileType	4	(X/Y/Z)	RBDS013\RBDS013runT25.trc
DataRate	CameraRate	NumFrames	NumMarkers	Units	OrigDataRate	OrigDataStartFrame	OrigNumFrames
150.000000	150.000000	4	33	mm	150.000000	3375	4500
Frame#	Time	L.ASIS			L.Heel.Bottom			L.Heel.Lateral			L.Heel.Top			L.Iliac.Crest			L.MT1			L.MT5			L.PSIS			L.Shank.Bottom.Lateral			L.Shank.Bottom.Medial			L.Shank.Top.Lateral			L.Shank.Top.Medial			L.Thigh.Bottom.Lateral			L.Thigh.Bottom.Medial			L.Thigh.Top.Lateral			L.Thigh.Top.Medial			R.ASIS			R.ASY			R.Heel.Bottom			R.Heel.Lateral			R.Heel.Top			R.Iliac.Crest			R.MT1			R.MT5			R.PSIS			R.Shank.Bottom.Lateral			R.Shank.Bottom.Medial			R.Shank.Top.Lateral			R.Shank.Top.Medial			R.Thigh.Bottom.Lateral			R.Thigh.Bottom.Medial			R.Thigh.Top.Lateral			R.Thigh.Top.Medial			
		X1	Y1	Z1	X2	Y2	Z2	X3	Y3	Z3	X4	Y4	Z4	X5	Y5	Z5	X6	Y6	Z6	X7	Y7	Z7	X8	Y8	Z8	X9	Y9	Z9	X10	Y10	Z10	X11	Y11	Z11	X12	Y12	Z12	X13	Y13	Z13	X14	Y14	Z14	X15	Y15	Z15	X16	Y16	Z16	X17	Y17	Z17	X18	Y18	Z18	X19	Y19	Z19	X20	Y20	Z20	X21	Y21	Z21	X22	Y22	Z22	X23	Y23	Z23	X24	Y24	Z24	X25	Y25	Z25	X26	Y26	Z26	X27	Y27	Z27	X28	Y28	Z28	X29	Y29	Z29	X30	Y30	Z30	X31	Y31	Z31	X32	Y32	Z32	X33	Y33	Z33	

3376	22.5	2217.832536717955	863.9449317527307	889.7501671323898	1978.2906320417	33.29599461058768	998.5126188117738	2000.956361920739	57.07689491958119	956.1019371802314	1990.059245702632	79.74908692889983	999.1352777570958	2157.142369481746	925.4486401329517	864.1185328773217	2191.353886771624	47.22405500339514	1021.621215209324	2153.06060028597	36.44598007365318	912.8392812047856	2062.607827513129	900.934022810696	975.2070351113656	2089.361040592329	148.9888245380725	931.8356250569611	2051.305199866405	173.3765944618395	964.2448696017777	2117.786900939179	221.8085517300021	912.3490519766752	2082.369869807167	245.9773786717593	944.9892367802493	2246.010572290983	522.2088280101019	864.4718362353965	2179.09616688237	507.0729195219168	889.7104114691391	2211.307007194542	624.7709147037638	843.0112601805142	2148.16646198904	610.9620395776481	867.2613129550201	2238.460629156108	856.0690000254164	1126.545352635537	1894.227573428727	336.3277906058709	1083.291495814633	1846.971592315601	522.3866502928856	1082.577103724862	1865.48082384899	496.1652520010356	1122.461044063141	1896.748502416051	510.3666827648888	1082.655771956734	2190.107292198073	918.3102588565846	1162.960693248257	1855.079855108491	317.6852402923992	1035.785360467701	1844.989279280608	338.4815578295824	1143.345869888146	2068.942475118066	895.3533405404288	1072.16931461478	1970.963274079177	452.1448126713266	1136.573438113864	1976.411195494361	490.228470843035	1101.935330413829	2054.891609444416	454.7891321996669	1149.366531249346	2056.188879069094	495.1377349523343	1114.345573804362	2249.055987225168	541.5780272476869	1181.588732074342	2192.70601588197	517.5489714519847	1141.229241588464	2201.891910653939	640.5453418148184	1184.262820314333	2148.29822629254	618.531467124712	1146.117536343467	
3377	22.50666666666667	2216.684597635117	865.55189388473	890.1994823083808	1961.352491096888	34.49833636029754	998.1695515351864	1984.139221438903	57.90799335515445	955.6069241207257	1973.434853955582	80.89944537513379	998.5075956120925	2156.809343122622	927.7682591353549	864.2446396275897	2174.352699889511	46.99795664857427	1021.58165325845	2136.054478751917	36.16270444231932	912.7525367958679	2061.502527004604	903.2929405810312	974.8646207965625	2073.370679108481	149.7236886702211	931.3307814846693	2035.619001685127	174.5560654415479	963.7295663095067	2102.746549623448	222.1477342953662	911.8776270111933	2067.634198662959	246.7769410275114	944.5298957538087	2236.626762255103	521.4681426058045	864.4188567931481	2169.154265409917	507.9222022104627	889.1366431137908	2204.695254509149	625.0250721216909	843.3270316101875	2141.149288812941	612.7551909885567	867.2985191062265	2236.689207903658	858.4206843020366	1126.965328236457	1909.013645394973	328.0352627083674	1082.633071495854	1854.03107424239	511.8124146137267	1084.140950259889	1873.753052030045	485.8822666480544	1123.477194155532	1904.283296854494	501.9384160549033	1083.992019884254	2187.806552109067	920.8726534552266	1163.167681756118	1870.528510888393	308.4640934542479	1034.632671893431	1859.739199417883	327.3167782499301	1142.479119807958	2067.483766232881	897.7906378412245	1071.920962070659	1981.224104326549	446.2956707966467	1136.754795547031	1985.035595831742	484.8015452901542	1102.522800670292	2064.939635343774	452.1401087533715	1149.573808878447	2064.598242676807	492.5935338306886	1114.696800234565	2256.395955283082	546.3714992574586	1181.784910592839	2200.628073402808	520.5092747032651	1141.555126432789	2206.036808666855	643.6825326343695	1184.562664929318	2152.833548168079	619.8916257559016	1146.780546181325	
3378	22.51333333333334	2215.704256595137	867.6796496570078	890.7026768050001	1944.420862623128	36.17079178241864	997.7983857750262	1967.364808243753	59.10558160904299	955.0608953842685	1956.911440383347	82.48732296432236	997.793571495692	2157.041527015802	930.5205007505455	864.3749735801571	2157.270201237739	46.81339093204804	1021.532035287128	2118.980669807823	35.9172836967369	912.7020316651788	2060.586014609954	906.1537465942662	974.5363478441632	2057.344314433184	150.8989521342716	930.8235887482954	2019.797940518359	176.1187427076073	963.155516003165	2087.526931634543	222.9892537435704	911.378950417174	2052.642283655371	248.0203748350528	944.008254339678	2226.798359323292	521.3684028455093	864.4646559947713	2158.850688936144	509.5410910799863	888.7996670665037	2197.788010909267	625.8696209124256	843.7176896842813	2133.904312884636	615.2518988842652	867.5179255177587	2235.174031225751	861.3382976986353	1127.291088276914	1924.176254827139	319.0053330461408	1082.04947691655	1860.739041861165	499.8786037582782	1085.391685984791	1881.73843668345	474.3928621866566	1124.220933171068	1911.407610836448	492.3878868980938	1085.083462126918	2186.096159205953	923.9358639850598	1163.292495175418	1886.530351300509	298.2669123951084	1033.488200102309	1874.942061487172	315.2772981922534	1141.552531007227	2066.208531766912	900.8089806297525	1071.668469286051	1991.148548723958	439.8319589826364	1136.796903061339	1993.091375749971	478.7138788971469	1103.005010489279	2074.456680348592	449.3182912117308	1149.705103396045	2072.265797266458	489.8193675577019	1114.993173524269	2263.47072134301	552.0495498209345	1181.928863860808	2208.29495465317	524.4715288520831	1141.783624429097	2210.000192997991	647.6154800189215	1184.924529515422	2157.238814000919	622.1453263769562	1147.448921056334	
3379	22.52	2214.904707489338	870.2847237622673	891.2111167428117	1927.551370680317	38.40628965518318	997.4039019767572	1950.694092645258	60.74651135302134	954.4702267120551	1940.557031594763	84.59303808080361	996.9966930061079	2157.793716184954	933.6521729250959	864.5248215702085	2140.112886110036	46.70138805879161	1021.43890002145	2101.852428389463	35.72384177826946	912.6818698969752	2059.872696304636	909.4904692909552	974.2565547764367	2041.337804816249	152.5991103263083	930.3139781486126	2003.911083872628	178.1470521907233	962.5413778076254	2072.177329833661	224.4219452411637	910.8571571716376	2037.459404943879	249.7909995987999	943.4498137152015	2216.569405579686	521.9452688429797	864.6343898596401	2148.259788389782	511.9772317421467	888.7812021824726	2190.623581936951	627.322088642113	844.1923196754746	2126.491360892357	618.4774866343246	867.9683280405919	2233.944703231213	864.7659623251044	1127.512268875734	1939.76777383579	309.350443161055	1081.553622323006	1867.2816404843	486.6380338228203	1086.285361346739	1889.603591561407	461.7766837994867	1124.67259981656	1918.274046577314	481.7449971434686	1085.884507860663	2184.946965451979	927.4624373333608	1163.352481412424	1903.154239169791	287.2169199433954	1032.401308575268	1890.698925990974	302.5329992174935	1140.612744095222	2065.145684317596	904.3784766997096	1071.447020379632	2000.812459770172	432.7684791973296	1136.704106244996	2000.689638299536	471.9489793287456	1103.36406546298	2083.480386318235	446.2738369651628	1149.753953633873	2079.257647397704	486.7434481803653	1115.227730464633	2270.221346069563	558.5069893745247	1182.027416992593	2215.631855724777	529.3462543567206	1141.940526023131	2213.757527682437	652.2694638977115	1185.366672047514	2161.478573533722	625.2285996785572	1148.150743889903	
